<svg xmlns="http://www.w3.org/2000/svg" xmlns:xlink="http://www.w3.org/1999/xlink" viewBox="0 0 1751.34 1124.93"><defs><style>.cls-1{fill:url(#linear-gradient);}.cls-2{fill:#013a69;}.cls-3{fill:#a1def7;}.cls-4,.cls-5{fill:#fff;}.cls-5{fill-rule:evenodd;}</style><linearGradient id="linear-gradient" x1="782.02" y1="395.6" x2="782.02" y2="-49.03" gradientUnits="userSpaceOnUse"><stop offset="0" stop-color="#febd21"/><stop offset="1" stop-color="#ff8000"/></linearGradient></defs><g id="Layer_2" data-name="Layer 2"><g id="Layer_1-2" data-name="Layer 1"><path class="cls-1" d="M1164.74,387.27H978s94.79-3.83,186.6-7.44c0-1.88-.12-3.75-.2-5.62-43.92-.22-79.05-.48-79.05-.48l78.77-5c-.18-3.25-.41-6.48-.67-9.71H789.08l373.49-9.35q-1-9.13-2.32-18.15L978,322h180.73q-.9-5.13-1.93-10.21L1018.41,300.3s60.94.66,136.13,1.21a394.81,394.81,0,0,0-23.06-69.74H978s71.71-2.9,150.8-6q-1.66-3.65-3.41-7.25c-24-.14-40-.26-40-.26l38.71-2.47q-3-6.2-6.3-12.26H789.08l324.18-8.12q-6.52-11.52-13.79-22.54L978,166.55h117.23q-5.71-8.33-11.85-16.33l-64.95-5.41s24.33.26,61.2.59C1009.44,56.7,902.2,0,782,0,683.85,0,594.31,37.85,526.56,100.07c62-1,108.58-2,108.58-2L507.3,119q-9.94,10.5-19.11,21.75H675.56L472.42,161.45Q461.58,176.71,452.16,193l412.21,20.26H441.26q-3,6.06-5.88,12.25l132.88,16.65s-73.41,1.06-140.62,1.38c-.76,1.89-1.48,3.81-2.21,5.72,105,7.93,250.13,19.45,250.13,19.45h-257c-.86,2.66-1.69,5.34-2.49,8l67.7,11.82h-71a399.11,399.11,0,0,0-8.51,40.28l-2.66-.85q-2.26,24.14-2.29,49,0,25.56,2.42,50.4c10.42,8.45,16.65,13.53,16.65,13.53s92.32-28.35,149.91-59.61l-30.7-9.82,30.7-22.66L611.05,336c4.8-27.17,9.15-51.15,9.36-52.44.41-2.53,57.58-20.25,91.28,14.86a17.68,17.68,0,0,0,3.93-2.78c1.39-1.71,1.84,3.43,3.75,12.39a76.41,76.41,0,0,1,4.86,8.38c.32.63.63,1.25.94,1.85a164.47,164.47,0,0,1,22.18,15.59c8.25-5.54,17.51-13.41,48.67,50.62v0q5.33,6.58,10.88,13.88,2.91,3.83,5.73,7.41c34.62,14.17,75,26.38,106.19,34.94,1.4-2,2.86-4.05,4.4-6.12a76.19,76.19,0,0,0,1.09-7.67s2.91-2.85,9.48-5.18C956,397.8,989.18,382.51,1035.71,441c0,0,29.54,2.49,48,14.79,24.13,5.48,52,14.42,70.26,28.56a401.73,401.73,0,0,0,10.77-92.56C1164.77,390.3,1164.75,388.78,1164.74,387.27Z"/><path class="cls-2" d="M1747.19,551.24a7.07,7.07,0,0,0-2.16-.32c0-2.63-.68-5.62.15-6.64,1.66-2.06,1.59-4.26,1.79-6.64a3.54,3.54,0,0,1,.57-1.67c.78-1.05,1.65-2,2.49-3l-2.8-2.36,4.11-2.6c-3.18-3.6-4.27-8.06-3.31-14.07l-2.73,2.66-3.13-2.6a9.66,9.66,0,0,0,.32-2.51,16.41,16.41,0,0,0,.28-6.13c.84-1,1.37-2-.23-3.53l3.94-6.4-.61-.58-3.4,1.2-2.7-5.19,2.91-6.32-5.23.6c.06-.83.11-1.49.15-2.08h-2.66a8.85,8.85,0,0,1,1-2.63l4.65-3.72-2.87-1.12c.61-1.25,1.08-2.2,1.75-3.59l-6.06,1.85c4.85-5.94,4.9-6.06,5.22-11.81h-2.85l2.78-4.57h-5.65l7.18-13.93-3.08.81c1-2.47,1.94-4.87,2.86-7.18l-11,.73,7.43-10.45-3.2.63c.3-1,.52-1.77.88-3l-2.67,1.25c-.5-2.84-1-5.46-1.47-8.29l-2.48.17-.45-.87,3.09-1.57c-.33-.48-.67-1-1-1.42l-2.77,1.83-.28-.5,2.53-2.77-2-.95c.39-.6,1-1.08.94-1.52-.08-2.16-.31-4.31-.48-6.47-3.08,1.08-2.55-2-3.31-4.1a5,5,0,0,0-3.41-2.86c-.88-.14-2.77,1.61-2.78,2.55,0,3.6-1.79,4.38-4.22,4.63.1,2,.18,3.78.27,5.69h-1.71c.66,2.57,1.26,5,1.85,7.3l-2.61-.5-3.46,10.4-1.68-.53c-.12.22-.24.44-.37.65l5.55,8.43-2.82-.5.82,2.43-1.77.16c0,.85.08,1.67.12,2.54h-2.88l2.55,4.76c-.2.23-.39.36-.57.34-1.59-.16-2,.45-2.08,1.3l-2.91-.95c.39-1.37.79-2.74.92-3.18l-3.42-12.43-2.91,3.86-3.51-7.09c-.86.73-1.89,1.58-3.19,2.67l2.57-6.11-.8-.66c-.53.61-1,1.22-1.66,1.91l-1.72-7-.6-.12-1.89,7-.72,0-.09-1.95c.33-.83.66-1.67,1-2.48l-1.1.07c-.08-1.68-.17-3.41-.25-5.24-1.25,2.14-2.32,5.33-3.18,5.24a2.06,2.06,0,0,0-1.71.35l-4.73.31,7.43-10.45-3.2.63c.3-1,.51-1.77.88-3l-2.67,1.25c-.51-2.84-1-5.46-1.47-8.29l-2.48.17-.45-.87,3.09-1.57-1-1.42-2.77,1.83-.28-.5,2.53-2.77-2-1c.39-.6,1-1.08.94-1.52-.08-2.16-.31-4.31-.48-6.47-3.08,1.08-2.55-2-3.32-4.1A5,5,0,0,0,1666,380c-.88-.14-2.77,1.61-2.78,2.55,0,3.6-1.79,4.38-4.22,4.63.1,2,.18,3.78.27,5.69h-1.71c.65,2.57,1.26,4.95,1.85,7.3l-2.61-.5c-1.17,3.52-2.31,6.94-3.47,10.41l-1.67-.54c-.12.22-.24.44-.37.65,1.85,2.82,3.71,5.63,5.55,8.43l-2.82-.5.82,2.43-1.77.16c0,.85.08,1.67.11,2.54h-2.88c1.84,3.41,3.57,6.62,5.53,10.28l-7-1.13c-.1.29-.19.58-.29.88l4.23,3.37c.54,1.62,1.13,3.33,1.8,5.32l-4.35-.42-.84-1.7-3.2,2.67,2.57-6.11-.8-.66-1.65,1.91-1.72-7-.61-.12-1.89,7-.71,0c-.15-3.09-.3-6.17-.46-9.6-1.24,2.14-2.32,5.33-3.18,5.24-2.9-.31-1.92,2-2,3.57a34.08,34.08,0,0,0,.29,3.51l-5-1.79c1,2.42,1.59,4,2.33,5.78l-2,2.18-1.88-1.8c-.31,1-.56,1.76-1,3.05-.24-1.84-.39-3-.63-4.94-.58,1.44-.85,2.1-1.13,2.78-.26-1.29-.51-2.55-.77-3.8l-.83.14c.18,2.88.37,5.76.62,9.73-1.23-2.15-1.93-3.39-3.21-5.64-.53,4.55-.91,7.86-1.29,11.15-.27-.31-.86-1-1.83-2,.08,2.26.51,3.94.12,5.22-1,3.42-2.45,6.66-3.66,9.86-.23-1.36-.54-3.14-.84-4.92l-.51.05v7.6l-3.21-4.2-.56.61,3.84,5.89-.24.51-4.58-4.07c1.34,2.53,2.38,4.38,3.27,6.18-.85.3-1.68.62-2.52.95-.35-.39-.7-.78-1.06-1.16l-.77.94c.12.28.23.56.34.83a63.26,63.26,0,0,0-7.32,3.66c-1.24.73-2.46,1.48-3.69,2.22l6.69-13-3.08.81c1-2.47,1.94-4.87,2.85-7.18l-11,.73,7.43-10.45-3.2.63c.3-1,.51-1.77.87-3l-2.67,1.25-1.46-8.29-2.48.17-.45-.87,3.08-1.57-1-1.42-2.77,1.83-.28-.49c.77-.86,1.55-1.71,2.53-2.78l-2-1c.39-.6,1-1.08.93-1.52-.07-2.16-.3-4.31-.48-6.47-3.08,1.08-2.55-2-3.31-4.1a5,5,0,0,0-3.41-2.86c-.87-.14-2.76,1.61-2.77,2.55,0,3.6-1.79,4.38-4.22,4.63.1,2,.18,3.78.27,5.69h-1.71c.65,2.57,1.25,5,1.85,7.3l-2.61-.5c-1.18,3.52-2.32,6.94-3.47,10.41l-1.67-.53c-.13.21-.25.43-.37.64,1.85,2.82,3.71,5.63,5.54,8.43l-2.82-.5c.32.93.54,1.59.83,2.44l-1.77.15c0,.85.07,1.68.11,2.54h-2.88l5.53,10.28-7-1.13c-.1.29-.2.59-.29.88l4.23,3.37c.54,1.62,1.12,3.34,1.79,5.32l-5.8-.56c1.2,2.74,2.14,4.91,3.45,7.92-3.87-.82-2.35,2.19-2.46,3.89l-4,.5,3.08,3.6q-2.39,1.16-4.72,2.15c-1.09-.42-1.65-.63-2.24-.87.61-1.25,1.08-2.2,1.75-3.59l-6.06,1.85c4.85-5.94,4.9-6.05,5.22-11.81h-2.85l2.78-4.57h-5.65l7.18-13.93-3.07.81,2.85-7.18-11,.73,7.43-10.45-3.2.63c.3-1,.52-1.77.88-3l-2.67,1.25c-.5-2.84-1-5.46-1.47-8.29l-2.48.17c-.15-.29-.29-.58-.45-.87l3.09-1.57-1-1.42-2.76,1.83-.29-.49,2.53-2.78-2-1c.39-.6,1-1.08.94-1.52-.08-2.16-.31-4.31-.48-6.47-3.08,1.08-2.55-2-3.31-4.1a5,5,0,0,0-3.41-2.86c-.88-.14-2.77,1.61-2.78,2.55,0,3.6-1.79,4.38-4.22,4.63.1,2,.18,3.78.27,5.69h-1.71c.65,2.57,1.26,5,1.85,7.3l-2.61-.5c-1.17,3.52-2.31,6.94-3.46,10.41l-1.68-.53c-.12.21-.24.43-.37.64l5.55,8.43-2.82-.5c.31.93.53,1.59.82,2.44l-1.77.15c0,.85.08,1.68.12,2.54h-2.88c1.83,3.42,3.56,6.62,5.52,10.28l-7-1.13c-.09.29-.19.59-.29.88l4.23,3.37,1.8,5.32-5.8-.56c1.19,2.74,2.14,4.91,3.44,7.92-3.86-.82-2.34,2.19-2.45,3.89l-4,.5.72.84c-3.63-3.28-7-6.68-10.34-10-16.19-16.16-31.48-31.42-69.81-31.42a188.09,188.09,0,0,0-23.13,1.57c-41.25,5.16-61.47,10.3-74.84,13.71l-2.81.71,5.14-10-3.08.81c1-2.47,1.94-4.87,2.86-7.18l-11,.73,7.43-10.45-3.2.63c.3-1,.51-1.77.88-3l-2.67,1.25c-.51-2.84-1-5.46-1.47-8.29l-2.48.17-.45-.87,3.09-1.57-1-1.42-2.77,1.83-.28-.49c.77-.86,1.55-1.71,2.53-2.78l-2-.95c.39-.6,1-1.08.94-1.52-.08-2.16-.31-4.31-.48-6.47-3.08,1.08-2.55-2-3.31-4.1a5,5,0,0,0-3.41-2.86c-.88-.14-2.77,1.61-2.78,2.55,0,3.6-1.79,4.38-4.22,4.63.1,2,.18,3.78.27,5.69h-1.71c.65,2.57,1.26,5,1.85,7.3l-2.61-.5c-1.17,3.52-2.31,6.94-3.47,10.41l-1.67-.53-.37.64c1.85,2.82,3.71,5.63,5.55,8.43l-2.82-.5c.31.93.53,1.59.82,2.44l-1.77.15c0,.85.08,1.68.11,2.54h-2.88l5.53,10.28-7-1.13c-.1.29-.19.59-.29.88l4.23,3.37.72,2.14c-3.56-.46-7.39-1.08-11.33-1.73s-7.91-1.28-11.88-1.82l1.48-3.74-11,.73,7.43-10.45-3.2.64c.3-1,.52-1.78.88-3-1.25.59-2,1-2.67,1.25l-1.46-8.29-2.49.17c-.14-.29-.29-.58-.44-.87l3.08-1.57-1-1.42-2.76,1.84c-.1-.17-.19-.34-.29-.5l2.53-2.78-1.95-.94c.39-.61,1-1.09.94-1.53-.07-2.16-.31-4.31-.48-6.46-3.08,1.08-2.55-2-3.31-4.11a5,5,0,0,0-3.41-2.86c-.88-.14-2.76,1.61-2.78,2.55,0,3.6-1.78,4.38-4.21,4.63.09,2,.17,3.78.26,5.69H1266l1.84,7.3-2.61-.5-3.46,10.41-1.68-.53-.36.64,5.54,8.43-2.82-.5c.31.93.54,1.59.82,2.44l-1.76.15c0,.85.07,1.68.11,2.54h-2.88l.9,1.68c-3,.73-6.44,1.6-10.17,2.55-18.54,4.73-43.94,11.21-62.46,11.21a54.35,54.35,0,0,1-9.78-.78c-18-3.32-37-15.08-53.74-25.46-4.82-3-9.37-5.8-13.83-8.39-10.84-6.3-19.93-6.45-28.73-6.59-8.48-.13-16.5-.25-26-5.87-7.14-4.24-13.5-9.56-20.23-15.19-11.91-9.95-25.41-21.24-47.24-30-24.42-9.8-36.51-17.4-45.33-22.95-3.43-2.15-6.39-4-9.5-5.67a8,8,0,0,0-3.84-1c-5.26,0-10.15,5.17-15.83,11.15-7.72,8.14-17.33,18.28-30.7,18.28-20.23,0-29.86-8.45-47.35-23.8-4.06-3.56-8.65-7.59-13.83-11.9-9.41-7.84-20.47-15.63-32.16-23.88-22.11-15.58-47.17-33.25-66.64-55.48-4-4.62-7.64-8.91-10.8-12.7-16.14-19.32-25-30-49.63-30a154.33,154.33,0,0,0-23.16,2.12,136,136,0,0,1-20.94,1.75,122,122,0,0,1-16.54-1.21,70.65,70.65,0,0,0-8.89-.77c-9.32,0-17.08,4.49-30.76,17.8C529.19,289.43,469,340.17,445,349.49l-7.93,3c-24.95,9.52-59.12,22.55-82.19,41.9-14.48,12.14-21.45,15.85-29.8,15.85-4.69,0-10-1.25-16.78-3.36,1-1.81,1.13-3.24,1.32-6.62h-2.85l2.78-4.57h-5.65c2.43-4.73,4.64-9,7.18-13.93l-3.08.81c1-2.47,1.94-4.87,2.86-7.18l-11,.73,7.43-10.45-3.2.63c.3-1,.51-1.77.88-3l-2.68,1.25-1.46-8.29-2.48.17-.45-.87L301,354l-1-1.42-2.77,1.83-.28-.5,2.53-2.77-2-.95c.39-.6,1-1.08.94-1.52-.08-2.16-.31-4.31-.49-6.47-3.07,1.08-2.54-2-3.3-4.1a5,5,0,0,0-3.41-2.86c-.88-.14-2.77,1.61-2.78,2.54-.05,3.61-1.79,4.39-4.22,4.64.1,2,.18,3.78.27,5.68h-1.71c.65,2.58,1.26,5,1.85,7.3l-2.61-.49c-1,3-2,6-3,8.95l-1.49.7-1.46-8.29-2.49.17c-.14-.29-.29-.58-.44-.87l3.08-1.57-1-1.42-2.77,1.83c-.1-.16-.19-.33-.29-.5l2.53-2.77-1.95-.95c.39-.6,1-1.08.94-1.52-.07-2.16-.3-4.31-.48-6.47-3.08,1.08-2.55-2-3.31-4.1a5,5,0,0,0-3.41-2.86c-.88-.14-2.76,1.61-2.78,2.54,0,3.61-1.78,4.39-4.21,4.64.09,2,.18,3.78.26,5.68h-1.7l1.84,7.3-2.61-.49-3.46,10.4-1.68-.53-.36.65,5.54,8.43-2.82-.5c.31.92.54,1.58.82,2.43l-1.76.16c0,.85.07,1.67.11,2.54h-2.88c1.83,3.41,3.56,6.62,5.53,10.27l-3.47-.55c.07-.15.14-.29.2-.44l-1.7.2-2.05-.33c-.07.19-.13.39-.2.58l-1.27.15c.06-.83.11-1.49.15-2.08h-5c3-2.36,5.12-4.1,8-6.35l-2.88-1.12c.62-1.25,1.08-2.2,1.76-3.59l-6.06,1.85c4.85-5.94,4.89-6.06,5.22-11.81h-2.85L249,360.7h-5.65c2.43-4.73,4.64-9,7.18-13.93l-3.08.81,2.86-7.18-11,.73,7.43-10.45-3.2.63c.3-1,.51-1.77.88-3l-2.68,1.25-1.46-8.29-2.48.16-.45-.86,3.08-1.58-1-1.41-2.77,1.83c-.09-.17-.19-.33-.29-.5l2.54-2.78-2-.94c.4-.61,1-1.08.94-1.52-.07-2.16-.3-4.31-.48-6.47-3.08,1.08-2.55-2-3.31-4.1a5,5,0,0,0-3.4-2.86c-.88-.14-2.77,1.61-2.78,2.54,0,3.61-1.79,4.39-4.22,4.63.1,2,.18,3.79.27,5.69h-1.71c.65,2.58,1.25,5,1.85,7.3l-2.61-.49c-1.18,3.52-2.32,6.94-3.47,10.4l-1.67-.53-.37.65c1.85,2.82,3.71,5.63,5.54,8.43l-2.82-.5c.32.92.54,1.58.83,2.43l-1.77.16c0,.85.07,1.67.11,2.54H215l5.53,10.27-7-1.12-.29.87,4.23,3.38,1.79,5.32-5.8-.57,3.45,7.93c-3.87-.82-2.35,2.19-2.46,3.89l-4,.5,8.3,9.7-.28.48L215.84,383c.16,1,.27,1.72.39,2.5H213l4.11,5.84-2.08.85,1.92,3.3-5-1.73c-.32,2.48,0,4.05.71,5.13-8.2-5.25-16.25-12.71-24.37-20.6-2.74-2.66-5.48-5.48-8.26-8.41.06-.13.12-.24.18-.38l-.41.13-2.35-2.5c1.61-2.34,1.7-3.64,1.92-7.59h-2.85l2.78-4.57H173.6l7.18-13.93-3.07.81,2.85-7.18-11,.73L177,325l-3.2.63c.3-1,.52-1.77.88-3L172,323.82c-.5-2.84-1-5.46-1.47-8.29l-2.48.17c-.14-.29-.29-.58-.44-.87l3.08-1.57-1-1.42L167,313.67l-.29-.49,2.53-2.78-1.95-.94c.39-.61,1-1.09.94-1.53-.08-2.16-.31-4.31-.48-6.46-3.08,1.07-2.55-2-3.31-4.11A5,5,0,0,0,161,294.5c-.88-.14-2.76,1.61-2.78,2.55-.05,3.6-1.79,4.38-4.21,4.63.09,2,.17,3.78.26,5.69h-1.71c.66,2.57,1.26,5,1.85,7.3l-2.61-.5-3.46,10.41-1.68-.53c-.12.21-.24.43-.37.64l5.55,8.43-2.82-.5c.31.93.53,1.59.82,2.44l-1.77.15.09,1.88c-2.26-2-4.55-4-6.89-5.85l.56-1.08-1.45.38-1.12-.86c.8-2,1.58-4,2.34-5.89l-9.74.65-.8-.53,7-9.84-3.2.63c.3-1,.52-1.77.88-3l-2.67,1.25c-.5-2.84-1-5.46-1.46-8.29l-2.49.16-.44-.86,3.08-1.58-1-1.41L128,302.78l-.29-.5,2.53-2.78-1.95-.94c.39-.61,1-1.08.94-1.52-.07-2.16-.31-4.31-.48-6.47-3.08,1.08-2.55-2-3.31-4.1A5,5,0,0,0,122,283.6c-.88-.13-2.76,1.62-2.78,2.55,0,3.6-1.78,4.39-4.21,4.63.09,2,.17,3.79.26,5.69h-1.7l1.84,7.3-2.61-.49c-.95,2.86-1.89,5.67-2.82,8.48l-7.71.51,7.44-10.45-3.21.64c.3-1,.52-1.78.88-3-1.25.59-2.05,1-2.67,1.25l-1.46-8.29-2.48.17-.45-.87,3.08-1.57-1-1.42-2.77,1.83-.29-.49,2.53-2.78-2-.94c.39-.61,1-1.09.94-1.53-.07-2.16-.3-4.31-.48-6.46-3.08,1.07-2.55-2-3.31-4.11a5,5,0,0,0-3.41-2.86c-.88-.14-2.76,1.61-2.78,2.55,0,3.6-1.78,4.38-4.21,4.63.09,2,.18,3.78.27,5.69H85.26l1.84,7.3-2.61-.5L81,301.44l-1.68-.53-.36.64L84.53,310l-2.82-.5c.31.93.54,1.59.82,2.44l-1.76.15c0,.85.07,1.68.11,2.54H78l5.53,10.28-7-1.13c-.1.29-.2.59-.29.88L80.45,328c.54,1.62,1.12,3.34,1.79,5.32l-5.8-.56c.64,1.46,1.21,2.77,1.79,4.12-1.85,0-1.56-2.54-2.21-4.32a5,5,0,0,0-3.41-2.86c-.88-.13-2.76,1.61-2.78,2.55,0,3.09-1.33,4.11-3.23,4.49-.12-.73-.25-1.46-.39-2.21l-2.48.16-.44-.86,3.08-1.58-1-1.41-2.76,1.83-.29-.5,2.53-2.78-1.95-.94c.39-.61,1-1.08.94-1.52-.08-2.16-.31-4.31-.48-6.47-3.08,1.08-2.55-2-3.31-4.1a5,5,0,0,0-3.41-2.87c-.88-.13-2.76,1.62-2.78,2.55,0,3.6-1.79,4.39-4.21,4.63.09,2,.17,3.79.26,5.69h-1.7l1.84,7.3-2.61-.49L44,343.58l-1.68-.53-.36.65.9,1.37-2.92.76,2.85-7.17-11,.72,7.43-10.45-3.2.64c.3-1,.52-1.78.88-3-1.25.59-2,1-2.67,1.25l-1.46-8.29-2.48.17-.45-.87,3.08-1.57-1-1.42-2.77,1.84c-.1-.17-.19-.34-.29-.5l2.53-2.78-1.95-.94c.39-.61,1-1.09.94-1.53-.07-2.16-.3-4.31-.48-6.46-3.08,1.08-2.55-2-3.31-4.11a5,5,0,0,0-3.41-2.86c-.88-.14-2.76,1.61-2.78,2.55-.05,3.6-1.78,4.38-4.21,4.63.09,2,.18,3.78.27,5.69H14.77l1.84,7.3-2.61-.5-3.46,10.41L8.86,328l-.36.64L14,337.09l-2.82-.5c.31.93.54,1.59.82,2.44l-1.76.15c0,.85.07,1.68.11,2.54H7.51c1.84,3.42,3.56,6.63,5.53,10.28l-7-1.13c-.1.3-.2.59-.29.88L10,355.13l1.79,5.31L6,359.88c1.19,2.75,2.14,4.92,3.45,7.92C5.53,367,7.05,370,6.94,371.69l-4,.51,8.3,9.69c-.09.17-.19.33-.29.49l-2.68-1.12c.16,1,.27,1.72.4,2.51H5.43l4.12,5.83-2.09.86,1.92,3.29-5-1.73c-1.14,8.77,5.79,6.2,9.08,10.54A53,53,0,0,0,8,401.31c-1.34-.15-3.19-2.62-3.72,1.07l-4-1.45c1.1,1.78,1.6,2.6,2.12,3.43L.8,405.48c3.39,6.15,8.56,3.25,13.09,4.53-2.64,4.61-6.39.55-9.4,2.1l3.19,4.49-.62.79L4,416.29c-.08-.47-.14-.85-.22-1.23-.24-1.11-.5-2.23-.75-3.34a27.74,27.74,0,0,1-.86,2.94,22,22,0,0,1-1.48,2.53l3.42,3.62c-3.79,1.41.47,2.94-.12,4.33l-4,.23c3.85,2.94,8,4.31,11.34,8.54l-1.06.1c0,.85.07,1.67.11,2.54H7.51c.07.14.14.27.22.4l-3.7.56c2.64,2.11,4.34,3.17,5.78,3.32,1,1.94,2.09,3.89,3.23,6L6,445.7c-.1.29-.2.58-.29.88L10,450l1.79,5.32L6,454.7c1.19,2.75,2.14,4.92,3.45,7.93-3.87-.82-2.35,2.19-2.46,3.89L3,467l8.3,9.7c-.09.16-.19.32-.29.48l-2.68-1.11c.16,1,.27,1.72.4,2.5H5.43l4.12,5.84-2.09.85,1.92,3.3-5-1.73c-1.14,8.76,5.79,6.19,9.08,10.54A50.91,50.91,0,0,0,8,496.13c-1.34-.15-3.19-2.61-3.72,1.08l-4-1.45c1.1,1.78,1.6,2.6,2.12,3.43L.8,500.31c3.39,6.14,8.56,3.25,13.09,4.52a4.93,4.93,0,0,1-1.51,1.72l-.4-.07a3.38,3.38,0,0,1-.11.34c-2.34,1-5.07-1.07-7.38.12l3.19,4.48-.62.8L4,511.12c-.08-.48-.14-.86-.22-1.23-.24-1.12-.5-2.23-.75-3.34a26.89,26.89,0,0,1-.86,2.93A23,23,0,0,1,.69,512l3.42,3.62C.32,517,4.58,518.58,4,520l-4,.24c3.49,2.66,7.25,4,10.39,7.42L9,527.81l2.87,3.36L4,532.33c5.2,4.17,6.76,4.26,9.84,1.33l3.23,4.09c0,.08-.09.16-.14.24l-2.68-1.12c.16,1,.27,1.72.39,2.51H11.4l4.12,5.84-2.09.85,1.92,3.29-5-1.72c-1.14,8.76,5.79,6.19,9.08,10.53a53.55,53.55,0,0,0-5.5-1.25c-1.34-.15-3.19-2.62-3.72,1.07l-4-1.45c1.11,1.79,1.61,2.6,2.12,3.44l-1.53,1.11c3.38,6.15,8.56,3.25,13.09,4.53-2.64,4.61-6.39.55-9.4,2.1,1.2,1.7,2.19,3.09,3.19,4.49L13,573,10,571.91c-.09-.48-.14-.86-.22-1.23-.24-1.12-.5-2.23-.75-3.35a27.07,27.07,0,0,1-.86,2.94,23,23,0,0,1-1.48,2.54l3.41,3.61c-3.78,1.41.48,2.94-.11,4.33L6,581c4.47,3.41,9.38,4.7,12.86,10.82L10,593.12c5.2,4.16,6.76,4.26,9.84,1.32,1.26,1.61,2.48,3.15,3.69,4.68l3.23-3.32c.16.65.33,1.21.49,1.74l.27,8.21c-.08,1.34-.16,2.69-.2,4,0,1.17-.07,2.91.45,3.37a2.5,2.5,0,0,0,2.85.1,1,1,0,0,0,.16-.22l117.45-4.61h1565.4v-4.86l1,1.26,3.24-3.31a21.08,21.08,0,0,1,1,4.29c0,3.23-.35,6.46-.45,9.7,0,1.16-.07,2.91.45,3.37a2.5,2.5,0,0,0,2.84.1c.56-.48.58-2.23.58-3.42,0-3-.31-6-.15-8.94a38.7,38.7,0,0,1,1.33-6.15c3.22,3.26,4.71,2.85,6.16-.09,2.74.08,5.2.86,7.26,0s4-3.23,6-4.95l-.51-1.12-9.66,1c1.76-3,3.2-4.36,6-3.84,1.8.33,3.84-1.49,6-2.43l-1.34-3.69h-6.53c5.51-5.81,7-11.31,4.35-15.26.47-1,1.68-1.87,2.16-2.86h.35c.1-.46.19-.91.29-1.37l-1.34-1.51c1.3-2.12,2.56-4.15,3.81-6.18l-.61-.59-.94.33.52-1.23c-.12-.07-.18-.17,0-.07l0,.07a.33.33,0,0,0,.32,0c1.49-.9,3.76-1.51,4.22-3C1750.83,551.11,1748.36,551.74,1747.19,551.24Z"/><path class="cls-2" d="M14.89,450.35a6.54,6.54,0,0,1,1.43-.71Z"/><path class="cls-2" d="M20.06,358l-5.17-2.47c2.39-1.56,4.24-1.19,5.56,1.09Z"/><path class="cls-2" d="M40.19,384.55H35.54l6-4.77c.42,1,.85,2,1.33,3.06C40.41,382.32,40.1,383.32,40.19,384.55Z"/><path class="cls-2" d="M41.57,375.13c.25-.51.51-1,.8-1.64l-6,1.85c3-3.7,4.17-5.14,4.69-7.08l2.38,1.9c.55,1.61,1.13,3.33,1.8,5.32Z"/><path class="cls-2" d="M45.48,354.06l-1.77.15c0,.86.08,1.68.12,2.55H41L46.47,367l-5.12-.82c.07-.75.12-1.62.18-2.69H38.69c1-1.67,1.72-2.84,2.78-4.57H35.81l7.1-13.76c1.53,2.31,3.05,4.63,4.57,6.93l-2.82-.5C45,352.55,45.19,353.21,45.48,354.06Z"/><path class="cls-2" d="M53.5,373l-5.17-2.46c2.39-1.57,4.24-1.19,5.56,1.09Z"/><path class="cls-2" d="M79.66,340.65c0-.19,0-.38,0-.57l.27.61Z"/><path class="cls-2" d="M90.94,329.5l-.39,1.38-5.17-2.47C87.77,326.85,89.62,327.22,90.94,329.5Z"/><path class="cls-2" d="M85,415.79l1.61-1.29,1,1.29Z"/><path class="cls-2" d="M91.68,454.07c-.06-.5-.11-1-.17-1.46l.17-.22Z"/><path class="cls-2" d="M91.68,417.65l-1.89.22c.06-.83.11-1.49.15-2.08h-1.3l2.65-2.71c.12.51.26,1,.39,1.4Z"/><path class="cls-2" d="M251.8,390.68l1.51,1.21c.55,1.61,1.13,3.33,1.8,5.32l-3.44-.34-1.44-2.78C250.63,393.21,251.16,392.07,251.8,390.68Z"/><path class="cls-2" d="M228,358.36c-.14.46-.27.91-.4,1.37l-5.16-2.46C224.8,355.7,226.65,356.08,228,358.36Z"/><path class="cls-2" d="M151.25,398.59a53.55,53.55,0,0,0-5.5-1.25,6.85,6.85,0,0,1-1.68-.73A7.43,7.43,0,0,0,143,394a1.87,1.87,0,0,1,.22-.39C145.1,395.88,149,395.64,151.25,398.59Z"/><path class="cls-2" d="M146.64,384.64l.7,1-1.76.72C145.94,385.78,146.29,385.2,146.64,384.64Z"/><path class="cls-2" d="M147.17,389.78l-2.41-.83a4.25,4.25,0,0,0-.47-.5l1.08-1.76Z"/><path class="cls-2" d="M142.3,375.79c1,1.37,2,2.73,2.84,4h-1.92l1.82,2.58-.82.29c-.92-1.76-1.66-3.19-2.69-5.19Z"/><path class="cls-2" d="M139.21,371.62a1.13,1.13,0,0,0,.1.13h-.11C139.2,371.71,139.21,371.67,139.21,371.62Z"/><path class="cls-2" d="M142,404.92c3,1.37,6.48.22,9.67,1.11-2.64,4.62-6.39.56-9.4,2.11l.78,1.1h-1.9c-.12-.5-.23-1-.34-1.49-.14.49-.26,1-.39,1.49h-1.82A27.7,27.7,0,0,0,142,404.92Z"/><path class="cls-2" d="M140.4,418.56l-5.88.63c1.76-3,3.19-4.34,6-3.84l1.4,1.49C140.39,417.4,140.16,418,140.4,418.56Z"/><path class="cls-2" d="M136.46,368l1.28,1.68h-3.38Z"/><path class="cls-2" d="M112,395c.23,0,.46.09.68.15A4.56,4.56,0,0,1,111,397h-.68C110.92,396.32,111.5,395.65,112,395Z"/><path class="cls-2" d="M96.9,412c2.8,2.85,4.3,2.89,5.59.91,3.34,2,6.65,3.91,9.19,8.38l-5.56.83-9.67-8.35C96.61,413.23,96.76,412.65,96.9,412Z"/><path class="cls-3" d="M214.33,557.92,222,521.45l-30.66-25.53s-4.79,7.29-4.79,10.94-25.88,43.76-24.92,37.69,0-29.18,0-29.18V486.19l-6.71,19.45V449.72l-21.08,74.16V465.52s-4.79-28-6.71-23.09-24,12.76-24,12.76L106,438.78H99.33L109.45,426a6.25,6.25,0,0,0,3.24-2c1.26,1.61,2.48,3.15,3.69,4.68l3.23-3.32c.44,1.79,1,3.05,1,4.29,0,3.24-.35,6.47-.45,9.7,0,1.17-.07,2.91.45,3.38a2.52,2.52,0,0,0,2.85.09c.55-.47.57-2.23.57-3.41,0-3-.31-6-.15-8.95a38.69,38.69,0,0,1,1.34-6.14c3.21,3.26,4.7,2.84,6.15-.1,2.74.09,5.2.86,7.27.05a7.66,7.66,0,0,0,1.77-1c3.68,2.3,7.42,4.09,10.23,9l-8.83,1.32c5.2,4.16,6.75,4.25,9.84,1.32,1.26,1.6,2.48,3.15,3.69,4.67l3.23-3.31c.44,1.79,1,3,1,4.29,0,3.23-.35,6.46-.45,9.7,0,1.16-.07,2.91.45,3.37a2.52,2.52,0,0,0,2.85.1c.55-.48.57-2.23.57-3.42,0-3-.31-6-.15-8.94,0-.14,0-.27,0-.4.16,3.92.11,7.88.64,14.27,1,11.55,3.83,11.55,10.54,16.41s4.79-1.21,7.67-3.64,7.66-6.69,7.66-6.69-11.5-7.9-15.33-6.08,0-14,0-14-.92-2.56-2.1-6c2.09.22,4,.57,5.63-.08,2.21-.87,4-3.23,6-4.95l-.51-1.12-9.66,1c1.76-3,3.2-4.36,6-3.84,1.8.33,3.84-1.49,6-2.43l-1.34-3.69h-6.53a23.6,23.6,0,0,0,4.63-6.65c1.19,1.87,2.35,3.9,3.37,5.85a78.19,78.19,0,0,1,5.75,14.59l6.71-4.87,11.49,15.81s-.95,7.29,0,10.33,8.63,11.55,8.63,11.55-1,19.45,1.92,23.1,39.28,42.55,39.28,46.19S214.33,557.92,214.33,557.92Z"/><path class="cls-2" d="M263.42,394.75l-5.17-2.46c2.39-1.57,4.24-1.19,5.56,1.09Z"/><path class="cls-2" d="M279.17,395.72l.09-.17.05.17Z"/><path class="cls-2" d="M280.11,375.79l-1.38.12-3.57.24,4.39-6.17,2.56,3.88-2.82-.5Z"/><path class="cls-2" d="M288.12,394.75,283,392.29c2.39-1.57,4.23-1.19,5.56,1.09C288.39,393.84,288.25,394.3,288.12,394.75Z"/><path class="cls-3" d="M801.69,508.07c-6.71-2.43-27.79,4.87-37.37,24.32l-9.59,19.45s-19.29-46.2-22.58-51.06,6.29-3.65,6.29-3.65l-6.29-21.88s.54-9.73-10,2.43-40.24,15.81-40.24,15.81l-4.79,21.88,29.7,36.47-33.54-9.73-6.71,28-5.75,7.29H644.53l-22-17s-3.83-14.59,0-18.24,6.71-10.94,3.84-10.94-29.71,2.43-29.71,2.43-9.58-26.74-11.5-32.82a24.43,24.43,0,0,1,0-14.59c1-2.43,6.71-10.94,9.58-10.94s24.92,25.53,24.92,25.53l-11.5-46.2,30.66,21.89,6.71-15.81s4.79-8.51,4.79-12.16,5.75-12.15,0-20.66-24.91-31.61-24.91-31.61-1.92-18.24-1.92-37.69V326.93s16.29,36.47,20.13,46.2,10.54,20.67,17.24,25.53a36.59,36.59,0,0,0,12.46,6.08s3.84-24.32-1.91-36.47S658,340.31,657,336.66s-8.62-10.94-8.62-10.94,6.7,3.64,7.66,7.29,12.46,0,12.46,0S658,301.4,655.07,299s-5.74-14.59-10.54-9.72-13.41,20.66-13.41,20.66S635,285.6,635,277.09s25.87-14.59,25.87-14.59h16.3s9.58,20.67,15.33,26.75l5.75,6.07s-5.75,3.65-15.34,0S702,331.8,713.53,342.74L725,353.68s8.62-15.81,0-35.26,17.25,8.44,28.75,31,39.28,49.27,39.28,49.27-31.62,0-44.08-12.16l-12.45-12.15,13.41,53.49h4.79l8.63,13.37-25.87,6.08s-9.59-7.3-4.8,0,14.38,19.45,14.38,19.45,23,29.18,35.45,34S808.4,510.51,801.69,508.07Z"/><path class="cls-3" d="M1045.09,534.82l7.66-21.88-23-49.85V485l-14.38-26.75v25.53L1001,454.58v48.63l-15.33-60.78-46-38.91s-14.37,30.4-14.86,29.18,0-6.08,0-6.08L910,432.7l2.88-19.45-27.79,6.69s35.45-31,39.76-34.65l29.23,10.94s27.79,20.67,30.67,23.71a51.42,51.42,0,0,0,6.23,5.47h13.89c2.88,0,4.79,8.51,4.79,8.51s19.17,13.37,21.08,17,30.67,15.8,30.67,15.8l-1,9.73,36.41,36.47Z"/><path class="cls-2" d="M1325.08,477.92l-5.17-2.47c2.39-1.56,4.23-1.19,5.56,1.09C1325.34,477,1325.2,477.46,1325.08,477.92Z"/><path class="cls-3" d="M1485.89,521.45c-11.5-4.87-13.42-9.11-27.79-10s-16.29-5.16-24.91,0-27.79,22.18-32.58,29.48-18.21,23.1-23,25.53-4.8,18.23-4.8,2.43,8.63-36.47,9.59-40.12,23-12.16,23.95-15.8,12.46-2.43,1.92-10.94-32.58,25.53-34.5,32.82-12.84,16.08-13.24,16.4c-.07.23-.13.45-.17.62l.16-.61h0c.18-.59.44-1.37.78-2.32,2.39-6.67,8.78-21.37,19.17-33.53,12.46-14.59,17.25-21.88,17.25-21.88a10.78,10.78,0,0,0,0-8.51c-1.92-4.87-10.54-14.59-5.75-13.38s1,1,14.37-.1a156.36,156.36,0,0,1,24.92,0s4.79,9.83,27.79,20.77,23,10.94,28.75,13.37,18.2,5.78,18.2,5.78S1497.39,526.31,1485.89,521.45Z"/><path class="cls-2" d="M1540.17,485.28l-5.17-2.47c2.39-1.56,4.23-1.19,5.56,1.09Z"/><path class="cls-2" d="M1581.69,485.28l-5.17-2.47c2.39-1.56,4.24-1.19,5.57,1.09C1582,484.36,1581.82,484.82,1581.69,485.28Z"/><path class="cls-2" d="M1646.3,451l-2.2-.05c.32-1.76.63-3.52,1-5.29l1.25.27Z"/><path class="cls-2" d="M1662.82,439.52l-5.16-2.46c2.39-1.56,4.23-1.19,5.56,1.09C1663.09,438.61,1663,439.07,1662.82,439.52Z"/><path class="cls-2" d="M1689.63,438l-2.2,0c.31-1.76.63-3.52.94-5.29l1.26.27Z"/><path class="cls-2" d="M1702.25,451.53a7.86,7.86,0,0,1,2.22-4.76c0,.68.13,1.5.1,2.18,0,.24,0,.48,0,.72l-1.5-.24c-.09.29-.19.58-.29.88l2,1.6a4.87,4.87,0,0,1,.06.55Z"/><path class="cls-2" d="M1715,454.69c.2-.48.39-.92.57-1.36a3.1,3.1,0,0,1,.64.35C1715.84,454,1715.44,454.32,1715,454.69Z"/><path class="cls-4" d="M71.39,707.72q-29,.1-58,.24V939.71Q33.6,936.26,53.86,933q0-33.16.08-66.35,8.6-1,17.18-2c32.07-3.95,57.94-41.23,58.07-82.2C129.33,741,103,707.89,71.39,707.72Zm-.18,102.55L54,811.44,54.07,763l17.22-.73c10.85-.43,18.64,9.34,18.61,22.67S82.14,809.56,71.21,810.27Z"/><path class="cls-4" d="M178.24,704.73c-24.09,70-48.09,143.14-72,220q22.2-3.36,44.41-6.53,3.93-12.86,7.87-25.57,28.59-3.57,57.22-6.86,3.79,11.36,7.58,22.59,22.3-2.86,44.61-5.52c-23.42-63.26-46.86-129.15-70.38-198.16Zm-6.69,145.95q8-25.41,16-50.3,7.74,23.89,15.48,47.33Q187.28,849.17,171.55,850.68Z"/><path class="cls-4" d="M375.73,796.43Q336.66,752.59,297.58,705l-13.15,0q-.57,98.07-1.13,196.14,20.37-2.37,40.75-4.58l.57-92.7c26.13,30,52.27,58.71,78.42,86.45q6.48-.62,13-1.2.58-91.38,1.19-182.76l-40.89.09Q376,751.46,375.73,796.43Z"/><path class="cls-4" d="M521.61,701.78c-47.75-.35-84.62,40.38-85,94.51-.35,53.7,35.91,90.86,83.76,87.09s84.86-43.48,85.11-93.16C605.76,740.15,569.36,702,521.61,701.78Zm-.84,137.8c-24.44,1.42-43-18.24-42.83-45.37s19-48.52,43.4-48.85,43,19.6,42.84,45.77S545.21,838.18,520.77,839.58Z"/><path class="cls-4" d="M741.07,758.84c.08-29-23.59-52.66-56.76-52.69l-58.34.07-.63,166.52q20.45-1,40.91-1.86.15-35.76.31-71.52,20.43,35.26,40.9,70,24-.8,47.92-1.38-20.58-32-41.09-64.26C729.41,796.12,741,779.06,741.07,758.84Zm-57.91,19.48-16.7.2q.07-16.5.14-33l16.7-.17c8.58-.08,16.57,6.14,16.54,16.27A16.57,16.57,0,0,1,683.16,778.32Z"/><path class="cls-4" d="M830.56,704.07c-23.86,54.21-47.81,108.65-71.83,163.81q22.38-.52,44.77-.85,3.93-9.45,7.87-18.87,28.78-.35,57.57-.4l7.74,18.7q22.44,0,44.87.17c-24-54.38-47.85-108.4-71.64-162.56Zm-6.24,112.75q7.95-19.11,15.9-38.15,7.86,19,15.73,38Q840.14,816.7,824.32,816.82Z"/><path class="cls-4" d="M1085.09,704.63Q1052.3,753,1019.4,800q-33.18-48.24-66.25-95.44H936.76q.11,81.1.2,162.2,20.47.22,40.94.62-.06-32-.13-63.95,20.84,30.87,41.73,62.19h.29q20.65-30.24,41.27-60.8l.24,64.81q20.48.72,40.93,1.6l-.75-166.59Z"/><path class="cls-4" d="M1188.23,704.2c-23.47,57.15-47,112.9-70.61,167.73q22.38,1,44.73,2.25,3.87-9.57,7.73-19.2,28.76,1.44,57.5,3.16,3.92,10.25,7.85,20.56,22.39,1.54,44.78,3.29c-24.24-61.09-48.46-120.19-72.63-177.78Zm-5.44,118.61q7.82-19.71,15.62-39.62,8,20.37,16,41Q1198.59,823.46,1182.79,822.81Z"/><path class="cls-4" d="M1386.4,791q-16-42.74-32-84.07h-3.05q-15.45,41.34-30.92,81.43-10.9-41.34-21.79-81.89l-44.14-.09q26.24,87.45,52.54,178.83l11.16,1q17.55-42.62,35.09-86.62,18.27,45.76,36.53,93.26l11.24,1.13q25-91,50.09-187.08l-44.13-.12Q1396.7,749.38,1386.4,791Z"/><path class="cls-4" d="M1507.62,855.58l-.15-28.33q24.38,1.85,48.73,3.83L1556,786q-24.37-1.29-48.76-2.5-.06-13.79-.14-27.59,29.63,1,59.24,2-.11-25.32-.22-50.64-49.8-.18-99.61-.32L1467.64,900q49.72,5.68,99.38,12.36-.12-25.51-.23-51Q1537.23,858.33,1507.62,855.58Z"/><path class="cls-4" d="M1666.87,800.9q.06,21.68.1,43.37,17.54,1.71,35,3.49c-.55,21.47-13.71,32.86-32.22,30.56-28.28-3.62-45.57-34.56-45.67-64.26-.12-32.71,19.89-58,42.74-57.35,11.33.41,23.62,8.28,32.2,20.42q11.23-22,22.51-44.7c-12.68-17.71-35.29-29.74-54.83-30.11-47.68.63-84.45,50.32-84.19,108.85s37.23,112.66,85.75,121c43.39,7.42,78.38-31.88,78.41-103,0-7.33-.48-14.85-1.23-22.66Q1706.19,803.57,1666.87,800.9Z"/><path class="cls-5" d="M271.11,944.56c-.93-3.4-1.91-6.79-3-10.13-1.25-3.77-2-4.06-5.71-2.32a43.53,43.53,0,0,0-5.22,2.89c-7.58,4.86-6.69,3.73-4.13,11.53a323.47,323.47,0,0,1,15.16,82,256.93,256.93,0,0,1-2.74,57.3c-1.46,8.77-3.23,17.49-6.61,25.78-.61,1.49-.92,3.77-2.81,3.84-2.09.08-2.68-2.2-3.49-3.81a19.61,19.61,0,0,1-1-2.58,121,121,0,0,1-4-16c-3.09-17-4.66-34.3-6.35-51.52-.36-3.67-1.48-6.47-5-8.1-7.7-3.6-7.24-2.31-8.38,4.24-3,17.45-7.74,34.38-15.8,50.25-3.41,6.7-5.46,6.73-9.48.26a42.61,42.61,0,0,1-5.47-15,169.77,169.77,0,0,1-2.29-39.34,507.89,507.89,0,0,1,6.43-55.19c1.93-11.81,4.57-23.47,7-35.17.89-4.24-.09-5.88-4.11-7.35a28.68,28.68,0,0,0-8.1-1.59c-5.15-.31-5.67.06-7,5.07-3.25,12.47-5.62,25.12-7.63,37.84-3.93,24.88-6.42,49.84-4.09,75.06,1.1,12,3.78,23.6,9.2,34.45a36.46,36.46,0,0,0,14.32,15.77c4.49,2.6,7.5,2.09,11-1.79a35.67,35.67,0,0,0,4.92-7.2,135.19,135.19,0,0,0,9.67-24.31c1.24-4.09,2.45-8.19,3.68-12.29a160.79,160.79,0,0,0,10.78,50.76c2.62,6.62,6.11,12.72,12,17.06h6.44a36,36,0,0,0,9.33-10,66.36,66.36,0,0,0,6.48-14.69c6.85-21.24,8.63-43.24,8.72-65.34,0-8.37-.42-16.83-1.15-25.24A368.85,368.85,0,0,0,271.11,944.56Z"/><path class="cls-5" d="M1052.71,1049.35a23.82,23.82,0,0,1-5.8-18.76c.49-4.1,2-6.19,4.73-6.39,3.1-.22,5.76,2.06,6.61,5.87a18.14,18.14,0,0,1,.36,4.1c0,3.37-.21,6.74-.31,10.11a16.29,16.29,0,0,0,0,3.2c.39,2.21,1.74,2.84,3.64,1.75a8.41,8.41,0,0,0,2.1-1.76c5.83-6.64,7.43-11.59,2.11-20.86-3.94-6.87-11.4-9.87-19.37-8.23-7.67,1.57-12.9,7.23-14.08,15.08-1.12,7.52,1.49,13.84,6,19.6,5.13,6.5,10.73,12.61,15.35,19.51a22,22,0,0,1,3.85,9.25,12.56,12.56,0,0,1-2.54,10c-3.68,4.59-9,4.84-13.14.63a17.41,17.41,0,0,1-4.4-8,35,35,0,0,1,.88-21.24c.64-1.73,1.49-3.55-.18-5.13s-3.62-1.58-5.63-1a10.77,10.77,0,0,0-8.16,8.47,37.06,37.06,0,0,0-1.11,10.49c.35,6.13-2.78,10.57-7.18,14.19a7.33,7.33,0,0,1-11.55-2.7,30,30,0,0,1-2-6.08c-2-8.62-1.2-17.39-1.21-26.11,0-1.88,1.16-3.06,2.45-4.21,5-4.44,8.58-9.92,11.72-15.78,7.21-13.46,10.47-28.06,12.62-43a90.67,90.67,0,0,0,.88-17.42c-.21-4.31-.87-8.54-3-12.4a10.48,10.48,0,0,0-12-5.38c-4.37.94-7.25,3.83-9.67,7.28a60.43,60.43,0,0,0-8.44,19.29,260.23,260.23,0,0,0-9,81,9.8,9.8,0,0,1-.33,3.62c-1.84,5.69-3.53,11.44-6.32,16.76a40.09,40.09,0,0,1-2.41,3.9,1.86,1.86,0,0,1-1.9,1c-.88-.21-1-1.06-1-1.84q-.07-2.07-.09-4.14c-.07-17.78,1.16-35.52,2.05-53.26.17-3.45-.5-6.23-3.72-7.64-6.09-2.69-9.42-2.35-9.73,5.13-.54,13.16-1.53,26.3-2,39.47a42.25,42.25,0,0,1-6.81,21.22c-1.46,2.31-3.61,3.81-6.53,3.52s-4.5-2.42-5.5-4.94a28.24,28.24,0,0,1-1.86-9.42c-.48-11.51.54-23,1.43-34.42a112.63,112.63,0,0,0,.31-14.69c-.27-4.86-1.72-6.32-6.55-7.42-1.55-.36-3.29,0-4.85-1,1.24-3,2.52-5.83,3.53-8.7,3.3-9.35,5.35-18.94,3.85-28.88-3.21-21.29-19.73-38-41.4-42.07a69.72,69.72,0,0,0-25.6,0c-18.21,3.32-32.92,12.2-43,28-8.54,13.38-11,28.23-9,43.69,1.72,13.21,9.17,22.46,21.9,27.11,1.16.42,2.31.83,3.49,1.17a3.42,3.42,0,0,1,2.73,3.7c0,5.36,0,10.73.08,16.09,0,2.27-1,3.31-3.32,3.45a80.82,80.82,0,0,0-8.21.91c-2.53.43-4,2-3.87,3.82.18,2.24,1.84,3,3.73,3.46a18.85,18.85,0,0,0,3.19.32c1.38.06,2.76,0,4.14,0,4,.1,4.33.48,4.48,4.6.05,1.53.07,3.06,0,4.59-.32,9.51.61,19,.68,28.49,0,3.71,1.81,5.36,5.32,5.41,3,0,4.07-1.18,4.2-5.18.36-10.87.67-21.75,1-32.62,0-.92,0-1.84.05-2.76.2-3.56.41-3.85,3.73-4.76,1.77-.49,3.59-.84,5.36-1.32,20.34-5.56,37.78-15.8,51.53-32,2.52-3,4.86-6.11,7.66-9.65,1.43,8.45.5,16.19-.08,23.92-.62,8.1-1.64,16.18-1.21,24.31.35,6.73,1,13.5,4.3,19.59,3.6,6.55,9.66,8.93,16.75,6.61a20.29,20.29,0,0,0,10.56-7.75c.88-1.25,1.37-3.09,3.44-3.35.81,2,1.4,3.93,2.31,5.68,2.64,5.1,7.44,6.35,12.35,3.31a17.87,17.87,0,0,0,4.92-4.77,66.11,66.11,0,0,0,6.58-11.57c.45-1,.64-2.2,1.85-3,1.74,5.1,2.88,10.07,5.86,14.29,3.88,5.49,9,8.19,15.79,7.25,4.82-.67,8.45-3.38,11.52-7,1.08-1.27,1.69-2.92,3.66-4.27.4.56.7.92.93,1.3,5.91,9.79,14.78,12.15,25.39,10.16a21.4,21.4,0,0,0,17.4-17.89c1.18-7.25-.81-13.64-4.91-19.52C1061.23,1059.41,1056.93,1054.4,1052.71,1049.35Zm-49.82-12.24c2.72-16.6,5.42-33.2,8.3-49.77a79,79,0,0,1,4.81-16.73c.73-1.75,1.27-4.39,3.66-4.12s2.14,3,2.57,4.88a33.78,33.78,0,0,1,.39,9.15c-.88,19-4.83,37.26-13.74,54.24-1.38,2.64-2.76,5.37-5.6,7.5A7.76,7.76,0,0,1,1002.89,1037.11Zm-83.08-45.18c-.87,13.85-3.95,27-11.53,38.77-8.45,13.16-20.51,21.7-35,27-3.31,1.21-6.72,2.13-10.1,3.12-1.93.56-3-.31-3-2.27,0-4.29.1-8.58.19-12.87,0-2.39,1.5-3.57,3.68-4a43,43,0,0,0,9.14-3,28.12,28.12,0,0,0,4.07-2.13c8.58-5.74,10.53-10,7.64-21.65-.32-1.29-.67-2.92-2.3-3.13-1.39-.18-2.08,1.14-2.8,2.1a39.91,39.91,0,0,1-10.65,10c-2.15,1.34-4.56,3.87-6.93,2.65s-1.18-4.51-1-6.81c1.14-11.92.29-23.9,1.38-35.82.68-7.45-1.36-8.68-8.08-5.43-.55.27-1.07.61-1.64.83-4.51,1.78-6.91,4.79-6,9.91a23.68,23.68,0,0,1,.07,4.13v9.61c.41,7.85-.11,14.75.61,21.64.34,3.32-.86,4.26-4.08,3.22-8.11-2.64-13.21-8.39-15.24-16.46a43.19,43.19,0,0,1,4.94-33.66c6.94-11.71,17.6-18.53,30.28-22.5a78.43,78.43,0,0,1,22.2-3.22c10.39-.2,18.29,4.4,24.72,12A38.12,38.12,0,0,1,919.81,991.93Z"/><path class="cls-5" d="M593.79,1060.63c-1.47-.38-2.82-.15-3.5,1.36a27.29,27.29,0,0,0-1.54,4.31,124.86,124.86,0,0,1-6.32,17.25,24.33,24.33,0,0,1-5.59,8.36c-1.42,1.32-3.1,2.17-5,1.33-1.73-.75-1.51-2.54-1.54-4a111.19,111.19,0,0,1,.43-13.78,205.82,205.82,0,0,0,1.42-31.19,39.29,39.29,0,0,0-3.45-15.61c-4-8.23-11.79-10.85-20-6.7-4.22,2.13-7.24,5.58-9.88,9.41-.65.93-.75,2.35-2.57,2.81,0-2.12,0-4.07,0-6-.13-4.23-1.68-6.1-5.8-7.05a15.36,15.36,0,0,0-5.49-.18c-2.67.37-3.61,1.36-3.28,4,1.33,10.85.44,21.74.74,32.61s-4.09,20-9.85,28.6a18.65,18.65,0,0,1-8.74,7.24c-4.23,1.64-7.37.62-9.94-3.13-1.73-2.52-1.52-3.33,1.5-4,8-1.7,13.38-6.56,16.68-13.81,6.14-13.51,6.34-27.27,1.23-41.12a21.75,21.75,0,0,0-2.9-5.2c-5.78-7.78-16-8.28-22.63-1.11a30.16,30.16,0,0,0-5.23,8.07,68.27,68.27,0,0,0-5.32,19.91c-.57,4.56-.37,9.26-1.41,13.69a78.44,78.44,0,0,1-7.28,19.31,21.33,21.33,0,0,1-4.43,5.83c-1.3,1.18-2.73,2.15-4.54,1.58-2-.63-2.11-2.45-2.18-4.15a38.83,38.83,0,0,1,0-5.06c.85-9.76,1.64-19.53,2.14-29.32a78.14,78.14,0,0,0-1.53-20.54,25.47,25.47,0,0,0-2.19-6c-4-8-12.27-10.5-20.17-6.2a25.11,25.11,0,0,0-9.4,9.24q-1.14,1.88-2.3,3.73a30,30,0,0,1-.61-6.94c-.08-4.61-1.91-6.6-6.55-7.21-6.49-.86-8.22.57-7.48,7.07,1.13,9.8.61,19.59.64,29.4,0,10.69-3.09,20.51-8.3,29.73a16,16,0,0,1-4.8,5.51c-2.81,1.92-5.1.92-5.6-2.41a17.3,17.3,0,0,1-.12-3.67c.41-5.81.88-11.6,1.31-17.41.73-9.92,1.66-19.85.35-29.8a30.73,30.73,0,0,0-4.29-13,13,13,0,0,0-14.28-5.94c-5.21,1.11-9.13,4.11-12.25,8.34-1.13,1.54-1.87,3.41-3.59,4.72-1-1.69-.5-3.23-.52-4.7-.21-11.35.69-22.66.92-34,.15-7.35-.05-14.71.71-22.05a94,94,0,0,0,.15-9.65c0-3-1.56-4.84-4.32-5.83a13.57,13.57,0,0,0-4.5-.78c-4.92-.06-6,.93-5.92,5.79.6,31.58-.76,63.13-1.11,94.7-.06,5.35-2.78,8.43-7.13,11a4.09,4.09,0,0,1-.9-3.5,101.32,101.32,0,0,0-.81-16.51c-1.14-8.3-3.32-16.2-8.27-23.14-3.12-4.36-7.26-7.32-12.67-7.25-6.92.1-13,2.59-16.61,8.94A81.16,81.16,0,0,0,290.8,1040a72.38,72.38,0,0,0-2,40.33c1.44,6.19,4,11.83,8.71,16.42,9.5,9.3,21.95,8.3,29.65-2.5a40.07,40.07,0,0,0,5.56-12.54,7.15,7.15,0,0,1,3.74-4.92,36,36,0,0,0,3.46-2.26c2.47-1.58,3.11-1.29,3.07,1.8-.08,6,.06,12-.47,17.92-.31,3.51.83,5.07,4.05,6.32a13.35,13.35,0,0,0,5,.71c4.82,0,5.48-.73,5.47-5.64,0-10.88,0-21.76,0-32.64,0-8.75,2.31-17,5.53-25a17.21,17.21,0,0,1,3.1-5.08c3.72-4.19,8.72-3.45,11.07,1.68a19.9,19.9,0,0,1,1.19,3.94c1.46,6.52,1.16,13.15.62,19.7-.73,8.88-.75,17.75-.63,26.64a27.58,27.58,0,0,0,2.45,11.61,9.37,9.37,0,0,0,8.74,5.65c6.31.25,10.71-3.16,14.63-7.43,1.72-1.88,3.15-4,5-6.49a19.34,19.34,0,0,1,0,6c-.23,3.52.81,5.11,4,6.34a15.69,15.69,0,0,0,7.72.54,2.85,2.85,0,0,0,2.74-3.11,50,50,0,0,0-.16-5c-1-8.71-.73-17.45-.59-26.18.18-10.22,2.75-20,6.54-29.43a13.18,13.18,0,0,1,4-5.52,6,6,0,0,1,9.15,1.47,14.26,14.26,0,0,1,1.91,5.14c1.43,7,1.1,14,.54,21.06a235.85,235.85,0,0,0-.44,27.11,30.08,30.08,0,0,0,1.29,7.21c2.1,7.16,7.47,10,14.63,7.85a18,18,0,0,0,4.9-2.49c4.57-3.1,7.59-7.49,10.3-12.17.74-1.28,1-2.89,2.55-3.9,1.62,4,2.86,7.91,5.38,11.27,5.77,7.73,14.33,9.71,22.78,5a27,27,0,0,0,8.47-7c2.11-2.74,4.14-5.55,6.91-9.28,0,4.36,0,7.65,0,10.93.06,4.5,1.71,6.46,6.14,7a21.79,21.79,0,0,0,5,0c2.79-.3,3.59-1.19,3.33-3.88-.93-9.79-.42-19.6-.58-29.4s2.26-19.11,5.38-28.29a20.63,20.63,0,0,1,3.23-6.07c3.82-4.92,9.61-4.17,11.91,1.57a19.59,19.59,0,0,1,1.42,7.18c0,5.06,0,10.12,0,15.17,0,8-1.28,15.89-.91,23.88.23,4.91.53,9.81,2.46,14.42,2,4.87,4.67,6.49,10,6.44a14.6,14.6,0,0,0,6.6-1.72,25.79,25.79,0,0,0,9.72-8.93,66.33,66.33,0,0,0,10.31-25.86,15.93,15.93,0,0,0,.27-2.28A2.5,2.5,0,0,0,593.79,1060.63ZM322.16,1083c-.84,3.42-1.72,6.83-3.79,9.75-3.61,5.09-9.07,5-12.2-.4-3.95-6.82-4.58-14.32-3.92-22.08,5.17,5,10.8,8.44,17.69,9.6C321.8,1080.19,322.65,1081,322.16,1083Zm1.61-14.1c-.42,3-.85,3.29-3.94,2.53a19.71,19.71,0,0,1-8.05-4.23,30.41,30.41,0,0,1-4-4.42c-4.3-5.44-5.29-11.21-2.06-17.51.42-.82.77-1.67,1.12-2.52,1.23-3,1.08-3.55-1.37-5.41-4-3-4.24-4.28-1.56-8.49a15.06,15.06,0,0,1,2.67-3.13c2.53-2.27,5.13-2.36,7.91-.38a15,15,0,0,1,4.85,6.56,54.23,54.23,0,0,1,3.92,15.52c.58,4.85.77,9.75,1.16,14.94C324.24,1064.35,324.08,1066.64,323.77,1068.91Zm165.87,7.48c-.64-6.61.23-13.17.9-19.71a125.67,125.67,0,0,1,3.58-21.27,30.7,30.7,0,0,1,2.22-6c1.67-3.15,4.34-3.24,6.49-.32a15.81,15.81,0,0,1,2.73,7.24c.6,4.25,1.29,8.49,1,12.07a87.4,87.4,0,0,1-1.88,19,25.23,25.23,0,0,1-4.19,9.63,13.56,13.56,0,0,1-2.88,2.93C493.17,1083.21,490.17,1081.88,489.64,1076.39Z"/><path class="cls-5" d="M1260.2,1051.58a31.59,31.59,0,0,1,2.14-17.95c2.4-5.41-1.24-12.38-6.48-12.81s-12.33,3.63-14.72,8.28c-2.74,5.33-4.48,11.07-7.49,16.58.11-2.44.23-4.88.34-7.32.14-3.36.4-6.73.39-10.1,0-4.43-1.71-6.43-6.1-7.21a18,18,0,0,0-5-.14c-2.9.3-3.76,1.35-3.4,4.29,1.32,10.85.45,21.74.7,32.61s-4.22,19.92-10,28.53a18.33,18.33,0,0,1-8.41,6.93c-4.14,1.66-7,.85-9.71-2.6-2.18-2.81-1.94-3.77,1.46-4.54a22.19,22.19,0,0,0,15.66-12.39c6.88-13.8,7.15-28,2-42.34a21.31,21.31,0,0,0-2.6-4.84c-5.9-8.45-16.82-8.92-23.51-1a32.2,32.2,0,0,0-4.84,7.78,59.39,59.39,0,0,0-5.2,20.4,81.23,81.23,0,0,1-8.9,32.06c-.84,1.65-1.46,4.52-3.7,3.92-1.81-.49-1-3.25-1-5-.59-27.28.83-54.54,1.13-81.81,0-.61,0-1.23.1-1.84,1.11-12.06.38-24.19,1.43-36.27.45-5.12-1.63-7.19-6.7-8.09-6.18-1.08-8,.56-8.06,6.77q0,27.36-.23,54.71c0,2.09.11,4.24-1.06,6.1-1.62-.1-2.19-1.37-3.15-2.06a9.67,9.67,0,0,0-6.46-2,22,22,0,0,0-13.44,5.29,29.17,29.17,0,0,0-7.95,11.66c-4.89,12.45-5.29,25.39-4.08,38.48A40.18,40.18,0,0,0,1119,1093c5.87,9.64,18,11.55,26.59,4.28.91-.78,1.47-2,2.73-2.35,1.13.5,1.3,1.69,1.86,2.56,2.59,4,6.33,5.12,10.68,3.12a15.07,15.07,0,0,0,4.36-3.32c3.54-3.54,5.72-7.92,7.89-12.33.62-1.25.79-2.86,2.43-3.86.49,1.5.84,2.66,1.23,3.8a32.53,32.53,0,0,0,5.21,10.18c5.16,6.42,12,8.34,19.71,5.4a26,26,0,0,0,11-8.12c2.18-2.68,4.14-5.53,6.9-9.23,0,4.52-.06,8,0,11.41.09,3.81,1.57,5.65,5.27,6.39a20.55,20.55,0,0,0,5,.27c3.79-.2,4.41-1,4.11-4.89-.55-7-1.1-14.14-.07-21.11a150.77,150.77,0,0,1,10.47-37.07,8.09,8.09,0,0,1,2.73-4.1c-.22,1.52-.32,2.41-.48,3.3a97.47,97.47,0,0,0-1.44,19.67,18.12,18.12,0,0,0,3.43,10.31,10.2,10.2,0,0,0,15.66,1.5c2.2-2.06,2.49-3.61.54-5.91C1262,1059.6,1260.83,1055.74,1260.2,1051.58Zm-111.44-4.35c-.44,10.35-1,20.89-1.08,31.44a18.75,18.75,0,0,1-3.87,11.1c-4.43,5.92-10.7,5.13-13.44-1.76a53.26,53.26,0,0,1-3.26-23.44c.62-9.14,1.49-18.3,4.71-27a22.85,22.85,0,0,1,3.81-7.28c3.12-3.63,6.57-3.73,9.76-.23a11.72,11.72,0,0,1,3.38,8.29C1148.73,1041.23,1148.76,1044.14,1148.76,1047.23Zm39.13,29.76c-.68-6,0-11.92.61-17.87a149.92,149.92,0,0,1,3.85-24,21.53,21.53,0,0,1,2.29-6c1.66-2.67,3.95-2.9,6-.52a14.52,14.52,0,0,1,3.08,7.57c.61,4.24,1.37,8.49,1,12a87.88,87.88,0,0,1-1.83,19,28.37,28.37,0,0,1-3.36,8.5,12.91,12.91,0,0,1-4.37,4.65C1191.05,1082.92,1188.43,1081.75,1187.89,1077Z"/><path class="cls-5" d="M790.78,1060.56a2.61,2.61,0,0,0-3.09,1.41,26.41,26.41,0,0,0-1.16,3c-1.33,3.92-2.57,7.87-4,11.77a47.8,47.8,0,0,1-5.52,11.59,14.63,14.63,0,0,1-4.46,4.57c-2.36,1.36-4.2.58-4.9-2a18,18,0,0,1-.28-5.95c.71-9.47,1.59-18.92,2.17-28.4.57-9.22.47-18.45-3.15-27.15-3.82-9.17-13.09-12-21.62-6.84-4.48,2.7-7.54,6.65-9.94,11.21-.74,1.4-1.08,3.1-2.75,4.55-1-3.47-1.44-6.65-2.84-9.54-4.08-8.43-12.63-11.12-20.79-6.48a25.83,25.83,0,0,0-9,9c-.79,1.23-1.15,2.79-2.93,4,0-2.5,0-4.58,0-6.66,0-5.33-2-7.42-7.39-7.81-5.91-.42-7.33.75-6.67,6.61,1.08,9.49.58,19,.72,28.48.17,11.07-3.42,21.06-8.32,30.73a19,19,0,0,1-1.47,2.33c-.45.63-1,1.23-1.88.94s-.82-1.2-.93-1.94a8.92,8.92,0,0,1-.07-1.37c.1-11.49-.19-23,.74-34.47.58-7.17.48-14.38,1.09-21.57.49-5.65-4.44-9.61-10.2-8.82a3,3,0,0,0-2.51,1.7c-.44.89.11,2.25-1.37,2.77-.92-1-1.8-2-2.81-2.93a10.49,10.49,0,0,0-7.94-3,22.07,22.07,0,0,0-13.42,5.35,29,29,0,0,0-7.75,11.26c-5,12.58-5.44,25.67-4.2,38.92a40.47,40.47,0,0,0,5.48,16.93c5.83,9.87,17.6,11.9,26.45,4.68,1-.85,1.61-2.27,3.06-2.56.88.31,1.06,1.12,1.47,1.75,4,6,8.79,6.69,14.18,1.92a32.48,32.48,0,0,0,6.7-8.7c.7-1.26,1.09-2.77,2.61-4,.08,1.1.18,1.69.16,2.28-.06,1.83-.14,3.67-.26,5.5-.32,4.55,1.12,6.56,5.5,7.48a18,18,0,0,0,5.95.12c2-.25,3.06-1.35,3-3.39-.12-2.75-.33-5.5-.46-8.25-.73-14.88-1.23-29.73,3.34-44.21,1.2-3.81,2.33-7.65,4.62-11,1.61-2.32,3.6-4.24,6.81-3.89s4.66,2.72,5.69,5.36a30.32,30.32,0,0,1,1.82,10.35c.31,11.06-.69,22.05-1.5,33.05a109.3,109.3,0,0,0-.24,14.7c.29,4.68,2.12,6.59,6.71,7.24a19.54,19.54,0,0,0,3.67.13c3.83-.18,4.61-.92,4.48-4.7-.14-4.13-1-8.29-.69-12.37.81-10.68,1.1-21.44,3.7-31.91,1.33-5.36,2.52-10.76,5.18-15.68a15.09,15.09,0,0,1,3.52-4.77,6.09,6.09,0,0,1,9.43,1.75,16,16,0,0,1,1.62,4.77c1.53,7.3,1.14,14.68.57,22-.65,8.28-.65,16.54-.56,24.81a29.23,29.23,0,0,0,2.22,10.75c1.67,4.12,4.71,6.19,9.23,6.29,6.31.14,10.79-3.2,14.51-7.66,6.83-8.19,10.56-17.87,12.71-28.22a13.64,13.64,0,0,0,.2-3.2A2.43,2.43,0,0,0,790.78,1060.56ZM658,1041.93c0,2.44-.37,4.88-.58,7.32-.43,9.79-1,19.56-1,29.37a18.63,18.63,0,0,1-3.8,11.12c-4.43,6-10.59,5.12-13.49-1.71a45.8,45.8,0,0,1-3.21-17.06c-.25-11.53,1-22.92,4.88-33.89a21,21,0,0,1,3.37-6.5c3.18-3.93,6.58-4.06,10.11-.54C657.64,1033.37,658.11,1037.58,658,1041.93Z"/><path class="cls-5" d="M1420.17,1080.1c-2.29-1.25-4.16-1.19-6.23.66a76.14,76.14,0,0,1-10.67,8c-22.8,14.18-47.68,19.57-74.31,17.58a19.51,19.51,0,0,1-2.73-.39c-4.43-.93-4.83-1.71-2.2-5.29q5.17-7,10.69-13.81c12.29-15.09,25.25-29.61,38.31-44q26.09-28.78,52.21-57.52c10.72-11.79,21.53-23.5,32.28-35.26,1.55-1.7,3-3.44,4.45-5.27s1.2-2.6-.9-3.46a56.54,56.54,0,0,0-7-2.29c-13.73-3.6-27.74-4.76-43.37-4.64-10.35-.28-22.1.89-33.83,2.08a254.87,254.87,0,0,0-31.31,4.94c-4.58,1-5.55,2.49-4.88,7.12A29.09,29.09,0,0,0,1344,958c2.13,4,2.59,4.31,6.84,3.15a381.32,381.32,0,0,1,41.39-8.58,341.66,341.66,0,0,1,37.9-4c1.58-.07,3.81-.79,4.59,1,.64,1.53-1.3,2.61-2.28,3.69q-14.73,16.42-29.57,32.75c-21.73,23.95-42.82,48.45-62.72,73.95-11.79,15.11-23.09,30.58-33.56,46.64-2.77,4.26-2.62,4.6,2.43,5.93.45.11.89.25,1.33.36a170.27,170.27,0,0,0,54.75,4.06,115,115,0,0,0,44.15-13.24,70.23,70.23,0,0,0,17.25-12.89c2.39-2.46,2.33-3.79.06-6.31A22.86,22.86,0,0,0,1420.17,1080.1Z"/><path class="cls-5" d="M1543.21,990.94c-.94-1.85-2.86-1.42-4.51-1.45-4.61-.1-9.17.68-13.75.91-4.87.25-5.38-.34-5-5.08,0-.46.11-.91.16-1.37.66-7,.4-14.09.62-21.13.1-2.85-1.32-4.6-3.94-5.51a14.89,14.89,0,0,0-5.88-.8c-4,.27-4.64,1.13-4.59,5.14.09,8.28.16,16.55.16,24.83,0,5.08-1.25,6.07-6.32,5.84-2.17-.09-3.16-1.51-4.46-2.81-4.22-4.21-10.11-3.51-13.24,1.59a14.06,14.06,0,0,0-.67,14.46c1.62,3.24,4,5.41,7.85,5.43s6.3-2.12,7.84-5.41c.72-1.51,1.13-3.17,1.77-4.72.91-2.2,2.86-2,4.71-1.85s2.47,1.57,2.38,3.25c-.12,2.45-.5,4.89-.49,7.34.1,17.32-1,34.62-1,51.93,0,9.27-3.26,17.34-7.29,25.31-.66,1.31-1.41,3.24-3.13,2.94-2-.36-1.19-2.49-1.31-3.88-.15-1.68,0-3.37-.06-5.06-.32-8.29.67-16.53.92-24.8s.81-16.82,1.31-25.23c.26-4.22-1.15-6.73-5-8.33-5.8-2.45-8-1.25-8.45,5-.74,10.38-1.85,20.79-1.76,31.18.08,9.4-3.27,17.35-7.8,25.07-2.52,4.29-5.83,7.9-10.68,9.71-4.23,1.59-7.44.5-9.85-3.3-1.65-2.61-1.47-3.37,1.56-3.92,8-1.43,13-6.39,16.54-13.29,5-9.81,5.57-20.27,4.31-31a39.35,39.35,0,0,0-4-13.13c-6.5-12.95-19.75-10.13-25.54-2.47a42,42,0,0,0-6.81,14,100.44,100.44,0,0,0-3.76,29.08c.13,8.34,1.76,16.47,6.39,23.67,6,9.39,15.63,11.47,25,5.47a36.21,36.21,0,0,0,10.33-10.34c.77-1.12,1.15-2.75,3-3.19a36.74,36.74,0,0,0,2,9.67c3,7.41,9.33,8.83,15.3,3.44a36.69,36.69,0,0,0,4.9-6.07c.78-1.09,1-2.6,2.59-3.4,1,2.44,1.15,5.09,2.3,7.41,2.91,5.89,8.43,7.29,13.68,3.34a26.53,26.53,0,0,0,6.25-7.29c4.38-6.94,7.08-14.59,9.42-22.38.58-1.91,1.09-3.84,1.55-5.77a2.38,2.38,0,0,0-1.8-3.19,2.52,2.52,0,0,0-3.32,1.66c-.77,2-1.42,4-2,6.09a111.53,111.53,0,0,1-6.58,17.15c-.56,1.09-1.16,2.16-1.81,3.2-.4.64-.91,1.33-1.82,1.06a1.88,1.88,0,0,1-1.16-1.82q-.29-3-.36-6c-.43-16.1.75-32.17.73-48.26,0-10.12.79-20.21,1-30.32.08-4.07.63-4.61,4.6-4.26,3.67.32,7.33.5,11,.52a7.86,7.86,0,0,0,6.68-3.39C1543.16,994.78,1544.27,993,1543.21,990.94ZM1448,1077.4a134.76,134.76,0,0,1,0-13.78,157.15,157.15,0,0,1,3.7-26.34,39.84,39.84,0,0,1,2.47-7.39c1.74-3.8,4.44-4,6.88-.51a15.82,15.82,0,0,1,2.26,5.48c1.2,4.83,1,9.74,1.06,13.84,0,6,0,11.2-1.11,16.34a32.4,32.4,0,0,1-4.4,11.51,11.54,11.54,0,0,1-4.66,4.32C1450.43,1082.64,1448.13,1081.46,1448,1077.4Z"/></g></g></svg>