<svg xmlns="http://www.w3.org/2000/svg" xmlns:xlink="http://www.w3.org/1999/xlink" viewBox="0 0 689.26 689.26"><defs><style>.cls-1{fill:#013a69;}.cls-2{fill:url(#linear-gradient);}.cls-3{fill:#a1def7;}</style><linearGradient id="linear-gradient" x1="344.63" y1="346.93" x2="344.63" y2="-43" gradientUnits="userSpaceOnUse"><stop offset="0" stop-color="#febd21"/><stop offset="1" stop-color="#ff8000"/></linearGradient></defs><g id="Layer_2" data-name="Layer 2"><g id="Layer_1-2" data-name="Layer 1"><path class="cls-1" d="M689.26,346.61a344.62,344.62,0,0,1-8,72c-.45,2.08-.92,4.14-1.41,6.2A344.71,344.71,0,0,1,3.37,393,347.76,347.76,0,0,1,0,344.63q0-17,1.62-33.51h0a341.58,341.58,0,0,1,12.14-63.19H46.39l-31-5.41q2.25-7.27,4.82-14.43h92.58c3.4-3.15,6.62-6.2,9.62-9.1-30.55-2.39-63.91-5-95.78-7.42q1.89-4.5,3.89-8.92c53.28-.42,100.36-1.11,100.36-1.11l-94.19-11.8q4.38-8.7,9.23-17.1H427L57.18,154.46a344.23,344.23,0,0,1,30-39l151-15.38H101.78a345.71,345.71,0,0,1,38.93-33.33l57-9.33s-17.37.37-45,.88a344.71,344.71,0,0,1,438.86,45.93L581,104.15l11.38.95q9.71,10,18.55,20.79H540.6l73.45,3.81q10.07,12.59,19,26.11l-281.3,7H637.48q7.24,11.63,13.55,23.84c-61.56,2.45-110.43,4.43-110.43,4.43H653.28a341.45,341.45,0,0,1,25.65,69.43c-56.58-.46-97.9-.91-97.9-.91l99.67,8.3q1.53,6.68,2.77,13.45H540.6l144.18,7.47q1.69,10.44,2.76,21.08l-306.26,7.67.91.74h306.1q.45,6,.69,12.11l-41,2.62s16.55.12,41.13.27c.09,2.43.14,4.88.16,7.33-78.24,3.09-148.64,5.93-148.64,5.93Z"/><path class="cls-2" d="M689.26,346.61a344.62,344.62,0,0,1-8,72c-.45,2.08-.92,4.14-1.41,6.2a288.82,288.82,0,0,0-33.55-9.63c-18.49-12.3-48-14.79-48-14.79-29.79-37.46-54.08-44.66-73.54-38.72a52.94,52.94,0,0,0-15,7.55,87.33,87.33,0,0,0-13.35,11.9,39.38,39.38,0,0,0-3.7,1.53,25.32,25.32,0,0,0-5.55,3.45l-.23.21a75.82,75.82,0,0,1-1.09,7.66c-1.54,2.07-3,4.12-4.4,6.12-31.25-8.56-71.58-20.77-106.19-34.94-1.88-2.39-3.79-4.85-5.73-7.41-3.71-4.87-7.33-9.48-10.89-13.88v0c-31.16-64-40.42-56.16-48.67-50.62q-3.63-3-7.1-5.57a151.54,151.54,0,0,0-15.08-10c-.31-.6-.62-1.21-.94-1.85,0-.08-.08-.17-.13-.25v0a76.74,76.74,0,0,0-4.72-8.11c-1.91-8.95-2.37-14.1-3.76-12.39a17.8,17.8,0,0,1-3.92,2.79,66.3,66.3,0,0,0-24.08-15.95c-19-7.41-39.42-6.21-52.7-3.65-8.73,1.68-14.37,3.94-14.5,4.73-.21,1.29-4.57,25.27-9.36,52.44l-42.79,12.84s-13,9.64-30.71,22.66l30.71,9.82C91,362.33,34.34,382.61,3.37,393A347.76,347.76,0,0,1,0,344.63q0-17,1.62-33.51h0a341.58,341.58,0,0,1,12.14-63.19H46.39l-31-5.41q2.25-7.27,4.82-14.43h218l-27.57-2.18h0c-21.21-1.67-52.83-4.16-88.19-6.92-30.55-2.39-63.91-5-95.78-7.42q1.89-4.5,3.89-8.92c53.28-.42,100.36-1.11,100.36-1.11l-94.19-11.8q4.38-8.7,9.23-17.1H427L57.18,154.46a344.23,344.23,0,0,1,30-39l151-15.38H101.78a345.71,345.71,0,0,1,38.93-33.33l57-9.33s-17.37.37-45,.88a344.71,344.71,0,0,1,438.86,45.93L581,104.15l11.38.95q9.71,10,18.55,20.79H540.6l73.45,3.81q10.07,12.59,19,26.11l-281.3,7H637.48q7.24,11.63,13.55,23.84c-61.56,2.45-110.43,4.43-110.43,4.43H653.28a341.45,341.45,0,0,1,25.65,69.43c-56.58-.46-97.9-.91-97.9-.91l99.67,8.3q1.53,6.68,2.77,13.45H540.6l144.18,7.47q1.69,10.44,2.76,21.08l-306.26,7.67-29.58.74H688.29q.45,6,.69,12.11l-41,2.62s16.55.12,41.13.27c.09,2.43.14,4.88.16,7.33-78.24,3.09-148.64,5.93-148.64,5.93Z"/><path class="cls-1" d="M681.31,418.58c-.45,2.08-.92,4.14-1.41,6.2a343.45,343.45,0,0,1-72.62,143H82A343.16,343.16,0,0,1,3.37,393,347.76,347.76,0,0,1,0,344.63q0-17,1.62-33.51h0c2.06-.78,4.06-1.54,6-2.28,21.46-8.31,71.63-49.57,105.2-80.75,3.4-3.15,6.62-6.2,9.62-9.1l1.77-1.71c13.68-13.32,21.44-17.81,30.76-17.81a72.57,72.57,0,0,1,8.89.77,121.87,121.87,0,0,0,16.53,1.21,136,136,0,0,0,20.94-1.75,155.78,155.78,0,0,1,23.17-2.12c24.6,0,33.48,10.64,49.63,30,3.16,3.79,6.75,8.09,10.8,12.7,19.47,22.24,44.53,39.9,66.63,55.48,10.71,7.55,20.88,14.72,29.75,21.9l.91.74,1.51,1.24c5.17,4.31,9.77,8.34,13.82,11.9,17.49,15.35,27.13,23.8,47.35,23.8,13.37,0,23-10.13,30.71-18.28,5.67-6,10.57-11.15,15.83-11.15a8.16,8.16,0,0,1,3.84,1c3.11,1.66,6.07,3.52,9.49,5.68,8.83,5.54,20.92,13.14,45.33,22.94,21.83,8.76,35.33,20,47.25,30,6.73,5.62,13.09,10.94,20.23,15.18,9.46,5.62,17.47,5.74,26,5.88,8.8.14,17.89.28,28.73,6.58C675.21,414.84,678.21,416.67,681.31,418.58Z"/><path class="cls-3" d="M364.31,467.42c-6.71-2.43-27.79,4.86-37.38,24.31l-9.58,19.45S298.06,465,294.77,460.12s6.29-3.64,6.29-3.64l-6.29-21.89s.54-9.72-10,2.43-40.25,15.81-40.25,15.81l-4.79,21.88,29.71,36.47-33.54-9.72-6.71,28-5.75,7.29H207.15l-22-17s-3.83-14.58,0-18.23,6.71-10.94,3.83-10.94-29.7,2.43-29.7,2.43-9.58-26.75-11.5-32.83a24.35,24.35,0,0,1,0-14.59c1-2.43,6.71-10.94,9.58-10.94s24.92,25.53,24.92,25.53l-11.5-46.19,30.66,21.88L208.11,420s4.79-8.51,4.79-12.15,5.75-12.16,0-20.67S188,355.57,188,355.57s-1.92-18.23-1.92-37.69v-31.6s16.29,36.47,20.12,46.19,10.54,20.67,17.25,25.53a36.36,36.36,0,0,0,12.46,6.08s3.83-24.31-1.92-36.47-13.41-28-14.37-31.61S211,285.06,211,285.06s6.71,3.65,7.67,7.29,12.46,0,12.46,0-10.54-31.6-13.42-34-5.75-14.58-10.54-9.72-13.41,20.67-13.41,20.67,3.83-24.32,3.83-32.83,25.87-14.59,25.87-14.59h16.29s9.59,20.67,15.33,26.75l5.75,6.08s-5.75,3.64-15.33,0,19.17,36.47,30.67,47.41L287.65,313s8.62-15.8,0-35.25,17.24,8.43,28.74,31S355.68,358,355.68,358s-31.62,0-44.08-12.15l-12.46-12.16,13.42,53.49h4.79L326,400.55l-25.88,6.08s-9.58-7.29-4.79,0,14.38,19.45,14.38,19.45,23,29.18,35.45,34S371,469.85,364.31,467.42Z"/><path class="cls-3" d="M607.71,494.16l7.66-21.88-23-49.84v21.88L578,417.57V443.1l-14.37-29.17v48.62l-15.34-60.78-46-38.9S487.92,393.26,487.44,392s0-6.08,0-6.08L472.59,392l2.88-19.45-27.79,6.69s35.45-31,39.76-34.65l29.23,10.94s27.79,20.67,30.67,23.71a50.73,50.73,0,0,0,6.22,5.47h13.9c2.87,0,4.79,8.51,4.79,8.51s19.17,13.37,21.08,17S624,426.08,624,426.08l-1,9.73,36.41,36.47Z"/></g></g></svg>